<svg width="398" height="84" viewBox="0 0 398 84" fill="none" xmlns="http://www.w3.org/2000/svg">
<mask id="mask0_1115_2110" style="mask-type:luminance" maskUnits="userSpaceOnUse" x="0" y="0" width="398" height="84">
<path d="M397.578 0H0V83.6719H397.578V0Z" fill="white"/>
</mask>
<g mask="url(#mask0_1115_2110)">
<path d="M0 35.0325C0 18.0444 14.7718 4.2087 32.4165 4.2087C36.4716 4.14325 40.4995 4.86074 44.2631 6.31902C48.0263 7.7773 51.4494 9.94679 54.3307 12.7002L48.1406 18.6421C43.9257 14.7236 38.2784 12.5666 32.4245 12.6401C19.5739 12.6401 9.52856 22.6216 9.52856 35.043C9.52856 47.4641 19.5578 57.4404 32.4245 57.4404C40.76 57.4404 45.5082 54.2098 48.549 51.2741C51.0436 48.8656 52.675 45.4001 53.2999 40.7028H32.4165V32.248H61.7813C62.1144 33.9917 62.2711 35.7623 62.2495 37.5349C62.2495 43.8474 60.4612 51.6629 54.6932 57.2292C49.0713 62.8421 41.902 65.8196 32.4165 65.8196C14.7718 65.8196 0 52.0203 0 35.0271" fill="white"/>
<path d="M85.9653 58.0263C79.7427 58.0263 74.3644 53.0682 74.3644 45.9991C74.3644 38.9297 79.7347 33.9742 85.9653 33.9742C92.1959 33.9742 97.5578 38.8592 97.5578 46.0092C97.5578 53.1596 92.1875 58.0314 85.9653 58.0314V58.0263ZM85.9653 26.1641C74.6023 26.1641 65.3281 34.5145 65.3281 45.9964C65.3281 57.4783 74.5943 65.8156 85.9653 65.8156C97.336 65.8156 106.605 57.3949 106.605 45.9832C106.605 34.5719 97.3279 26.1587 85.9653 26.1587V26.1641Z" fill="white"/>
<path d="M130.987 58.0263C124.765 58.0263 119.384 53.0682 119.384 45.9991C119.384 38.9297 124.757 33.9742 130.987 33.9742C137.218 33.9742 142.591 38.8592 142.591 46.0092C142.591 53.1596 137.218 58.0419 130.987 58.0419V58.0263ZM130.987 26.1742C119.625 26.1742 110.348 34.525 110.348 46.0069C110.348 57.4887 119.617 65.826 130.987 65.826C142.358 65.826 151.627 57.4053 151.627 45.9937C151.627 34.5824 142.358 26.1587 130.987 26.1587V26.1742Z" fill="white"/>
<path d="M210.087 6.31787H201.051V64.6458H210.087V6.31787Z" fill="white"/>
<path d="M210.087 6.31787H201.051V64.6458H210.087V6.31787Z" fill="white"/>
<path d="M234.155 33.8293C237.74 33.8293 240.775 35.5541 241.785 38.0383L223.406 45.4023C223.168 37.7329 229.561 33.8293 234.155 33.8293ZM234.853 58.0326C230.254 58.0326 226.986 56.0023 224.886 52.0306L252.384 41.0522L251.461 38.8158C249.744 34.3797 244.53 26.1909 233.857 26.1909C223.184 26.1909 214.465 34.2363 214.465 46.0235C214.465 57.1477 223.19 65.8559 234.872 65.8559C238.261 65.8726 241.602 65.0768 244.593 63.5394C247.585 62.0019 250.132 59.7714 252.009 57.0488L244.999 52.5395C242.642 55.838 239.447 58.0326 234.853 58.0326Z" fill="white"/>
<path d="M175.91 58.0343C169.688 58.0343 164.461 52.9978 164.461 46.0853C164.461 39.1726 169.68 33.9822 175.91 33.9822C182.141 33.9822 186.862 39.0916 186.862 46.0853C186.862 53.0788 182.052 58.0343 175.9 58.0343H175.91ZM186.245 27.3644V30.5899H185.934C183.908 28.2414 180.015 26.1538 175.112 26.1538C164.832 26.1538 155.406 34.8748 155.406 46.0749C155.406 57.275 164.829 65.8211 175.112 65.8211C180.017 65.8211 183.911 63.7335 185.934 61.3118H186.245V64.1665C186.245 71.7577 182.041 75.8155 175.291 75.8155C169.761 75.8155 166.336 71.9821 164.948 68.77L157.081 71.9301C158.561 75.421 161.09 78.4048 164.343 80.4975C167.596 82.5905 171.424 83.6961 175.334 83.6728C185.929 83.6728 194.884 77.6709 194.884 63.0029V27.3644H186.245Z" fill="white"/>
<path d="M309.721 6.23047H279.227V64.7332H309.721V6.23047Z" fill="#4285F4"/>
<path d="M366.292 65.6612C383.573 65.6612 397.58 52.1494 397.58 35.482C397.58 18.8145 383.573 5.30273 366.292 5.30273C349.01 5.30273 335.004 18.8145 335.004 35.482C335.004 52.1494 349.01 65.6612 366.292 65.6612Z" fill="#4285F4"/>
<path d="M319.721 70.9636H313.844L330.574 0H336.454L319.721 70.9636Z" fill="white"/>
</g>
</svg>
