<svg width="1447" height="642" viewBox="0 0 1447 642" fill="none" xmlns="http://www.w3.org/2000/svg">
<path d="M654.614 485.15C771.251 462.593 884.119 435.544 990.451 404.517C1191.53 343.098 1334.38 285.892 1445.7 226.124V1.00146C1409.22 117.425 1268.79 244.189 1029.8 336.658C1025.89 338.197 1021.75 339.636 1017.99 341.257C751.831 457.183 377.127 524.45 1.00781 525.303V546.445C225.689 545.717 450.017 525.297 654.614 485.15Z" fill="#428EFF" stroke="#202124" stroke-width="0.830168" stroke-linecap="round" stroke-linejoin="round"/>
<path d="M839.425 485.437C842.306 484.887 845.196 484.319 848.085 483.751C1076.83 438.987 1275.94 381.094 1445.72 315.97V226.115C1334.39 285.886 1191.54 343.097 990.462 404.509C884.135 435.536 771.26 462.591 654.631 485.141C450.024 525.289 225.705 545.703 1.02344 546.437V563.98C288.699 563.24 576.045 537.073 839.439 485.437H839.425Z" fill="#FF5145" stroke="#202124" stroke-width="0.830168" stroke-linecap="round" stroke-linejoin="round"/>
<path d="M839.424 485.441C576.028 537.082 288.684 563.249 1.00781 563.989V583.373C501.77 582.385 1002.06 522.107 1445.71 402.535V315.978C1275.93 381.102 1076.82 438.995 848.077 483.76C845.187 484.328 842.305 484.896 839.416 485.446L839.424 485.441Z" fill="#38A852" stroke="#202124" stroke-width="0.830168" stroke-linecap="round" stroke-linejoin="round"/>
<path d="M1141.12 571.775C999.818 586.406 858.995 596.811 720.589 603.304C477.398 614.408 239.157 620.049 1 620.238V641.291H1445.7V532.692C1351.87 546.2 1251.26 559.133 1141.11 571.775H1141.12Z" fill="#DADCE0" stroke="#202124" stroke-width="0.830168" stroke-linecap="round" stroke-linejoin="round"/>
<path d="M900.206 556.016C896.956 556.353 893.712 556.691 890.47 557.022C594.125 587.072 297.57 602.289 1.00781 602.71V620.235C239.158 620.046 477.398 614.405 720.597 603.302C858.995 596.808 999.819 586.409 1141.13 571.772C1251.26 559.13 1351.88 546.197 1445.72 532.69V476.059C1273.13 509.092 1090.9 536.188 900.214 556.016H900.206Z" fill="#202124" stroke="#202124" stroke-width="0.830168" stroke-linecap="round" stroke-linejoin="round"/>
<path d="M1.00781 602.708C297.57 602.294 594.133 587.071 890.47 557.021C893.72 556.683 896.956 556.353 900.206 556.016C1090.89 536.187 1273.12 509.09 1445.71 476.058V402.54C1002.06 522.107 501.77 582.384 1.00781 583.372V602.708Z" fill="#FFBB01" stroke="#202124" stroke-width="0.830168" stroke-linecap="round" stroke-linejoin="round"/>
<path d="M1.16797 602.758C297.73 602.344 594.293 587.121 890.63 557.071C893.88 556.733 897.116 556.403 900.366 556.065C1091.05 536.237 1273.28 509.14 1445.87 476.108V402.589C1002.22 522.156 501.93 582.433 1.16797 583.421V602.758Z" fill="#FFBB01" stroke="#202124" stroke-width="0.830168" stroke-linecap="round" stroke-linejoin="round"/>
<path d="M1227.73 211.326C1226.64 210.439 1225.27 209.953 1223.86 209.948C1219.28 209.938 1214.79 210.621 1210.47 211.996C1211.57 209.734 1211.93 207.104 1211.37 204.469L1206.91 183.691C1206.71 182.79 1206.32 181.944 1205.75 181.215C1205.19 180.486 1204.47 179.893 1203.65 179.478C1202.83 179.066 1201.92 178.843 1201 178.826C1200.09 178.808 1199.17 178.997 1198.34 179.377L1198.32 179.381L1176.02 189.603C1174 187.948 1171.58 186.841 1169 186.387C1166.43 185.934 1163.77 186.15 1161.3 187.014C1159.66 186.673 1157.9 186.838 1156.28 187.576L1156.25 187.582L1142.07 194.094C1137.97 195.97 1136.17 200.822 1138.04 204.917L1139.48 208.063C1141.36 212.143 1146.19 213.951 1150.27 212.099L1150.3 212.094L1164.49 205.581C1165.39 205.168 1166.19 204.607 1166.86 203.93L1174.74 212.239L1163.97 262.788C1163.65 262.92 1163.33 263.064 1163.01 263.224L1128.35 234.759L1129.73 233.951C1134.67 231.076 1136.69 225.21 1134.45 220.301C1132.2 215.392 1126.43 213.098 1121.03 214.964L1101.95 221.538C1098.85 222.613 1096.34 224.911 1095.08 227.845C1093.93 230.532 1093.95 233.565 1095.13 236.149L1096.77 239.729C1097.96 242.321 1100.24 244.31 1103.03 245.195C1106.07 246.162 1109.46 245.767 1112.29 244.111L1113.47 243.431L1116.47 245.897C1116.56 245.99 1116.68 246.085 1116.8 246.188L1124.16 252.243L1121.7 259.851C1113.48 258.737 1105.11 259.961 1097.55 263.385L1097.39 263.454C1095.19 264.459 1093.09 265.643 1091.09 266.99L1065.7 240.604C1065.43 239.212 1064.82 237.869 1063.84 236.723C1060.83 233.173 1055.49 232.726 1051.94 235.74C1048.77 238.427 1048.08 242.962 1050.1 246.436C1048.81 248.025 1047.14 250.775 1043.7 259.608C1043.49 260.16 1043.29 260.666 1043.11 261.125C1041.96 264.106 1041.82 264.38 1041.44 264.745C1040.76 265.387 1039.92 265.812 1039.17 266.193C1038.69 266.436 1038.19 266.682 1037.69 267.015C1035.25 268.636 1034.14 271.436 1034.91 274.155C1035.4 275.925 1036.61 277.358 1038.3 278.201C1041.33 279.695 1045.99 279.047 1049.26 277.737C1052.57 276.42 1054.2 274.667 1058.15 270.425C1058.89 269.63 1059.74 268.715 1060.73 267.662C1061.4 266.949 1063.45 264.777 1063.86 264.444L1063.92 264.406C1064.97 263.71 1066.2 263.273 1067.65 263.071L1081.3 277.249C1081.24 277.546 1081.21 277.845 1081.19 278.142C1076.66 284.301 1073.87 291.558 1073.09 299.162C1072.31 306.766 1073.59 314.439 1076.78 321.385C1081.55 331.796 1090.09 339.725 1100.83 343.711C1111.51 347.679 1123.09 347.27 1133.46 342.566L1133.63 342.496C1147.64 336.069 1157.05 322.621 1158.46 307.472C1159.35 306.38 1159.84 305.015 1159.84 303.607C1159.84 301.92 1159.75 300.234 1159.56 298.563L1175.57 292.866C1179.82 291.345 1183.26 288.104 1185.01 283.948C1185.92 281.804 1186.33 279.511 1186.28 277.23C1188.54 280.899 1191.34 284.211 1194.58 287.057C1195.63 287.989 1196.97 288.532 1198.38 288.596C1204.52 293.105 1211.74 295.897 1219.32 296.684C1226.89 297.472 1234.54 296.227 1241.47 293.077C1241.53 293.054 1241.58 293.031 1241.63 293.009C1252.04 288.24 1259.97 279.7 1263.96 268.962C1267.95 258.223 1267.51 246.578 1262.75 236.173C1256.32 222.156 1242.87 212.755 1227.72 211.342L1227.73 211.326ZM1170.95 276.866C1171.28 277.587 1170.96 278.443 1170.24 278.769C1169.9 278.926 1169.5 278.941 1169.15 278.812C1168.97 278.745 1168.81 278.645 1168.67 278.516C1168.53 278.387 1168.42 278.232 1168.34 278.06C1168.18 277.714 1168.17 277.319 1168.3 276.962C1168.43 276.61 1168.7 276.314 1169.05 276.157C1169.77 275.831 1170.62 276.144 1170.95 276.866Z" fill="#DADCE1" stroke="#202124" stroke-width="0.476343" stroke-linecap="round" stroke-linejoin="round"/>
<path d="M1059.09 243.73L1058.84 243.966C1058.84 243.966 1058.88 243.937 1058.9 243.913C1058.97 243.858 1059.03 243.798 1059.09 243.73ZM1058.59 244.143L1058.75 244.052L1058.84 243.973C1058.76 244.044 1058.67 244.094 1058.59 244.15L1058.59 244.143Z" stroke="#202124" stroke-width="0.476343" stroke-linejoin="round"/>
<path d="M1047 272.005C1049.43 271.032 1050.32 269.746 1056.26 263.425C1059.38 260.115 1059.84 259.717 1060.54 259.251C1063.77 257.114 1067.32 256.743 1069.89 256.781L1060.64 245.867C1059.29 246.541 1057.08 247.807 1055.16 250.002C1054.4 250.873 1053.06 252.592 1049.46 261.831C1047.73 266.27 1047.36 267.617 1045.7 269.194C1043.37 271.414 1040.72 271.969 1040.86 272.478C1041.01 272.999 1044.04 273.178 1047 272.005Z" fill="#FF5445" stroke="black" stroke-width="0.476343" stroke-miterlimit="10"/>
<path d="M1058.21 244.349L1091.39 278.822L1092.8 277.622L1059.55 243.067L1059.34 243.503L1059.09 243.732C1059.03 243.799 1058.96 243.859 1058.89 243.914C1058.87 243.932 1058.85 243.95 1058.83 243.967L1058.74 244.046L1058.58 244.138L1058.47 244.191L1058.2 244.343L1058.21 244.349Z" fill="#B7B5B5" stroke="black" stroke-width="0.476343" stroke-miterlimit="10"/>
<path d="M1058.84 243.966C1058.84 243.966 1058.89 243.937 1058.9 243.913C1058.97 243.858 1059.04 243.797 1059.1 243.73L1058.84 243.966Z" stroke="#202124" stroke-width="0.476343" stroke-linejoin="round"/>
<path d="M1055.68 243.65C1056.01 244.044 1056.47 244.313 1056.98 244.412C1057.49 244.512 1058.01 244.436 1058.47 244.198L1058.58 244.145C1058.66 244.095 1058.75 244.038 1058.83 243.967L1059.09 243.732C1059.87 242.9 1059.92 241.592 1059.16 240.697C1058.97 240.467 1058.73 240.279 1058.46 240.142C1058.2 240.004 1057.91 239.921 1057.61 239.897C1057.31 239.872 1057.01 239.907 1056.72 239.999C1056.43 240.092 1056.17 240.239 1055.94 240.434C1054.97 241.252 1054.86 242.693 1055.68 243.657L1055.68 243.65Z" fill="#B7B5B5" stroke="black" stroke-width="0.476343" stroke-miterlimit="10"/>
<path d="M1058.84 243.966C1058.84 243.966 1058.89 243.937 1058.9 243.913C1058.97 243.858 1059.04 243.797 1059.1 243.73L1058.84 243.966Z" stroke="#202124" stroke-width="0.476343" stroke-linejoin="round"/>
<path d="M1190.4 269.32C1198.85 287.752 1220.64 295.846 1239.08 287.396C1257.51 278.947 1265.61 257.156 1257.16 238.725C1248.71 220.293 1226.91 212.199 1208.48 220.648C1190.05 229.098 1181.95 250.888 1190.4 269.32ZM1196.65 266.453C1189.79 251.473 1196.37 233.764 1211.35 226.899C1226.33 220.034 1244.04 226.613 1250.91 241.592C1257.77 256.571 1251.19 274.281 1236.21 281.146C1221.23 288.011 1203.52 281.432 1196.65 266.453Z" fill="#00AD40" stroke="black" stroke-width="0.476343" stroke-miterlimit="10"/>
<path d="M1211.85 228.008C1197.47 234.595 1191.16 251.585 1197.75 265.957C1198.94 268.554 1200.47 270.888 1202.27 272.927L1198.66 282.435C1194.69 278.933 1191.5 274.636 1189.3 269.823C1180.57 250.791 1188.93 228.282 1207.97 219.561C1212.95 217.275 1218.37 216.098 1223.84 216.111L1220.24 225.617C1217.41 225.972 1214.58 226.751 1211.85 228.007L1211.85 228.008ZM1082.4 318.814C1090.85 337.245 1112.64 345.34 1131.08 336.89C1149.51 328.441 1157.61 306.65 1149.16 288.219C1140.71 269.787 1118.92 261.693 1100.48 270.142C1082.05 278.591 1073.95 300.382 1082.4 318.814ZM1088.65 315.947C1081.79 300.967 1088.37 283.258 1103.35 276.393C1118.33 269.527 1136.04 276.107 1142.91 291.086C1149.77 306.065 1143.19 323.775 1128.21 330.64C1113.23 337.505 1095.52 330.926 1088.65 315.947Z" fill="#00AD40" stroke="black" stroke-width="0.476343" stroke-miterlimit="10"/>
<path d="M1141.8 291.59C1135.22 277.218 1118.22 270.909 1103.85 277.495C1101.32 278.654 1098.97 280.177 1096.88 282.017L1087.37 278.403C1090.87 274.435 1095.17 271.247 1099.98 269.046C1119.02 260.319 1141.53 268.676 1150.25 287.717C1152.54 292.694 1153.71 298.108 1153.7 303.585L1144.19 299.978C1143.84 297.15 1143.06 294.32 1141.8 291.597L1141.8 291.59Z" fill="#00AD40" stroke="black" stroke-width="0.476343" stroke-miterlimit="10"/>
<path d="M1118.21 304.851L1135.65 250.676L1131.57 249.361L1114.12 303.535L1118.21 304.851ZM1176.85 273.797L1189.11 216.387C1189.56 214.253 1188.19 212.158 1186.05 211.71L1181.37 210.732L1168.31 272.007L1176.86 273.796L1176.85 273.797Z" fill="#FFBB00" stroke="black" stroke-width="0.476343" stroke-miterlimit="10"/>
<path d="M1162.81 275.965L1113.02 235.09C1112.83 234.932 1112.67 234.737 1112.55 234.517C1112.43 234.296 1112.35 234.055 1112.33 233.805C1112.3 233.556 1112.33 233.305 1112.4 233.065C1112.47 232.825 1112.59 232.601 1112.75 232.407C1112.91 232.213 1113.1 232.052 1113.32 231.933C1113.54 231.814 1113.78 231.739 1114.03 231.714C1114.28 231.689 1114.53 231.713 1114.77 231.784C1115.01 231.856 1115.24 231.975 1115.43 232.133L1165.22 273.008L1162.8 275.966L1162.81 275.965Z" fill="#B7B5B5" stroke="black" stroke-width="0.476343" stroke-miterlimit="10"/>
<path d="M1162.04 275.387L1120.72 241.426C1120.04 240.87 1120.03 239.758 1120.7 238.945C1121.37 238.125 1122.46 237.918 1123.14 238.468L1164.46 272.429L1162.04 275.387Z" fill="#FFBB00" stroke="black" stroke-width="0.476343" stroke-miterlimit="10"/>
<path d="M1109.2 238.788L1126.63 228.635C1128.82 227.366 1129.77 224.885 1128.85 222.874C1127.93 220.864 1125.42 219.967 1123.04 220.795L1103.96 227.368C1101.16 228.336 1099.65 231.238 1100.74 233.588L1102.38 237.168C1103.46 239.518 1106.64 240.275 1109.2 238.788Z" fill="#FF5445" stroke="#202124" stroke-width="0.476343" stroke-linejoin="round"/>
<path d="M1112.01 304.33C1112.51 305.412 1113.39 306.27 1114.49 306.733C1115.59 307.197 1116.82 307.233 1117.94 306.834L1173.52 287.063C1179.03 285.099 1181.67 278.838 1179.24 273.521C1176.8 268.205 1170.33 266.12 1165.24 269.011L1113.98 298.2C1112.94 298.789 1112.17 299.746 1111.8 300.881C1111.43 302.016 1111.51 303.247 1112 304.331L1112.01 304.33ZM1165.35 279.439C1164.83 278.3 1164.78 277.001 1165.22 275.827C1165.65 274.653 1166.54 273.701 1167.68 273.179C1170.05 272.095 1172.85 273.129 1173.94 275.508C1174.46 276.647 1174.51 277.946 1174.07 279.12C1173.63 280.294 1172.75 281.246 1171.61 281.768C1170.47 282.289 1169.17 282.336 1168 281.9C1166.82 281.463 1165.87 280.578 1165.35 279.439Z" fill="#FFBB00" stroke="black" stroke-width="0.476343" stroke-miterlimit="10"/>
<path d="M1148.94 199.387L1162.55 193.149C1166.09 191.521 1170.28 192.336 1172.96 195.164L1189.63 212.725L1186.51 215.691L1170.35 198.671C1169.57 197.854 1168.56 197.299 1167.46 197.085C1166.35 196.87 1165.2 197.007 1164.18 197.476L1150.85 203.583L1148.93 199.388L1148.94 199.387Z" fill="#B7B5B5" stroke="black" stroke-width="0.476343" stroke-miterlimit="10"/>
<path d="M1147.74 206.464L1161.93 199.965C1162.17 199.856 1162.38 199.7 1162.56 199.507C1162.74 199.314 1162.88 199.088 1162.97 198.841C1163.06 198.594 1163.11 198.331 1163.1 198.068C1163.09 197.805 1163.03 197.546 1162.92 197.307L1161.48 194.164C1161.25 193.681 1160.85 193.305 1160.35 193.12C1159.85 192.935 1159.3 192.956 1158.82 193.177L1144.63 199.676C1144.15 199.897 1143.77 200.302 1143.59 200.8C1143.4 201.299 1143.42 201.85 1143.65 202.334L1145.09 205.477C1145.2 205.716 1145.35 205.932 1145.54 206.111C1145.74 206.29 1145.96 206.43 1146.21 206.521C1146.46 206.613 1146.72 206.655 1146.98 206.645C1147.25 206.635 1147.5 206.574 1147.74 206.464Z" fill="#3184FF" stroke="black" stroke-width="0.476343" stroke-miterlimit="10"/>
<path d="M1174.68 196.993L1200.88 184.985L1205.34 205.763C1205.6 206.971 1205.44 208.233 1204.88 209.338C1204.33 210.443 1203.42 211.325 1202.29 211.839L1192.47 216.339M1203.57 197.509L1183.79 206.574M1201.76 191.467L1179.5 201.669M1205.21 203.631L1188.13 211.455M1192.52 188.821L1201.48 212.217M1183.81 192.816L1197.14 214.205" stroke="black" stroke-width="0.476343" stroke-miterlimit="10"/>
<path d="M1224.62 256.48C1225.02 256.908 1225.58 257.16 1226.16 257.18C1226.75 257.2 1227.32 256.987 1227.75 256.587C1228.17 256.187 1228.43 255.633 1228.45 255.047C1228.47 254.461 1228.25 253.891 1227.85 253.463L1183.8 206.278C1183.4 205.849 1182.85 205.597 1182.26 205.577C1181.68 205.557 1181.11 205.77 1180.68 206.17C1180.25 206.57 1180 207.124 1179.98 207.71C1179.96 208.296 1180.17 208.866 1180.57 209.294L1224.62 256.48Z" fill="#FFBB00" stroke="black" stroke-width="0.476343" stroke-miterlimit="10"/>
</svg>
